<?xml version="1.0" encoding="utf-8"?>
<!-- Generator: Adobe Illustrator 21.0.2, SVG Export Plug-In . SVG Version: 6.00 Build 0)  -->
<svg version="1.1" id="Layer_2" xmlns="http://www.w3.org/2000/svg" xmlns:xlink="http://www.w3.org/1999/xlink" x="0px" y="0px"
	 viewBox="0 0 54 54" style="enable-background:new 0 0 54 54;" xml:space="preserve">
<style type="text/css">
	.st0{fill:url(#SVGID_1_);}
</style>
<circle cx="27" cy="27" r="26.1"/>
<linearGradient id="SVGID_1_" gradientUnits="userSpaceOnUse" x1="7.8458" y1="27" x2="46.1542" y2="27">
	<stop  offset="5.618000e-03" style="stop-color:#FBC926"/>
	<stop  offset="0.2528" style="stop-color:#FFFBCC"/>
	<stop  offset="0.2986" style="stop-color:#F8EBB8"/>
	<stop  offset="0.3896" style="stop-color:#E7CF8E"/>
	<stop  offset="0.5159" style="stop-color:#D0A953"/>
	<stop  offset="0.5955" style="stop-color:#C3922E"/>
	<stop  offset="0.8143" style="stop-color:#E2C675"/>
	<stop  offset="0.8708" style="stop-color:#EED688"/>
	<stop  offset="1" style="stop-color:#FFFBCC"/>
</linearGradient>
<path class="st0" d="M30.2,16.9c1.3,0.8,3,0.5,3.9-0.8c0,0,0,0,0,0c0.8-1.3,0.5-3-0.8-3.8c0,0,0,0,0,0c-1.3-0.8-3-0.5-3.9,0.8
	C28.6,14.4,28.9,16.1,30.2,16.9z M30.5,13.8c0.5-0.7,1.4-0.9,2.1-0.4c0.7,0.5,0.9,1.4,0.4,2.1c0,0,0,0,0,0c-0.5,0.7-1.4,0.9-2.1,0.4
	c0,0,0,0,0,0C30.2,15.4,30,14.5,30.5,13.8z M39.7,19.7C39.7,19.7,39.7,19.7,39.7,19.7c0.8-1.3,0.5-3-0.8-3.8c0,0,0,0,0,0
	c-1.3-0.8-3-0.5-3.9,0.8c-0.8,1.3-0.5,3,0.8,3.8C37.1,21.3,38.8,21,39.7,19.7z M36.1,17.4c0.5-0.7,1.4-0.9,2.1-0.4
	c0.7,0.5,0.9,1.4,0.4,2.1c0,0,0,0,0,0c-0.5,0.7-1.4,0.9-2.1,0.4c0,0,0,0,0,0C35.8,19,35.6,18,36.1,17.4z M25.5,16.1L25.5,16.1
	L25.5,16.1L25.5,16.1z M13.1,13.7c-3.2-0.1-5.6,3.2-5.2,5.9c0.4,2.7,3.9,5.1,6.9,4.2c2.9-1,10.7-7.7,10.7-7.7
	C25.5,16.1,16.3,13.8,13.1,13.7z M14.3,22.2c-2,0.7-4.4-1-4.7-2.9c-0.3-1.8,1.4-4.1,3.6-4.1c2.2,0.1,8.4,1.7,8.4,1.7
	S16.3,21.6,14.3,22.2z M45.7,34.7c-1.4-2.8-7.3-10.2-7.3-10.2s-3,9.8-2.7,12.8c0.3,3.1,4,5.3,6.7,4.5C45,41.1,47.1,37.5,45.7,34.7z
	 M41.9,40.2c-1.8,0.5-4.3-1-4.5-3.1c-0.2-2.1,1.9-8.8,1.9-8.8s4,5,5,7C45.1,37.2,43.7,39.6,41.9,40.2z M35.3,24.1l-8.2-5.3
	c2-0.5,3.9-0.3,5.4,0.6C34,20.4,35,22,35.3,24.1z M18.1,32.9l8,5.1c-1.5,0.4-3,0.3-4.3-0.2c0,0.1-0.1,0.2-0.1,0.3
	c-1.1,1.2-3.8,4.1-3.8,4.1s1-3.8,1.9-5.3c0.1-0.1,0.1-0.2,0.2-0.3C19,35.7,18.3,34.4,18.1,32.9z M24.5,19.9l10.8,7
	c-0.1,0.8-0.3,1.7-0.6,2.5l-12.3-7.9C23.1,20.9,23.8,20.3,24.5,19.9z M20.8,23.2l13,8.3c-0.2,0.3-0.4,0.7-0.6,1
	c-0.2,0.4-0.5,0.7-0.8,1l-12.9-8.3c0.2-0.4,0.4-0.8,0.7-1.1C20.4,23.8,20.6,23.5,20.8,23.2z M18.6,27.5l12.2,7.9
	c-0.7,0.6-1.4,1.1-2.1,1.5L18,30C18.1,29.2,18.3,28.3,18.6,27.5z"/>
</svg>
