<?xml version="1.0" encoding="utf-8"?>

<!DOCTYPE svg PUBLIC "-//W3C//DTD SVG 1.1//EN" "http://www.w3.org/Graphics/SVG/1.1/DTD/svg11.dtd">
<svg version="1.1" id="Layer_1" xmlns="http://www.w3.org/2000/svg" xmlns:xlink="http://www.w3.org/1999/xlink" x="0px" y="0px"
	 viewBox="0 0 1638 1646.516" enable-background="new 0 0 1638 1646.516" xml:space="preserve">
<g>
	<path d="M846.923,289.02V96.344c184.481,74.078,329.899,203.923,417.935,415.689c-61.89,219.069-228.373,344.25-468.493,403.331
		V727.736C580.778,844.555,418.75,981.754,340.229,1150.729c75.304,176.725,247.304,353.594,432.538,399.4v-183.687
		c216.4,33.592,400.04-65.066,578.526-255.441c186.669-199.104,214.539-523.476,85.45-797.825l0,0
		C1156.031-26.707,652.939-74.675,313.056,206.038C-26.827,486.75-74.795,989.842,205.917,1329.725
		c-47.728-69.275-75.786-146.1-82.769-225.481C83.702,655.804,347.249,327.218,846.923,289.02z"/>
	<path fill="#FF0000" d="M1591.179,609.998c-2.035-7.425-4.18-14.829-6.435-22.209
		C1586.999,595.169,1589.144,602.573,1591.179,609.998c-27.719-107.272-79.561-206.24-154.436-296.822
		c4.087,4.949,8.093,9.939,12.041,14.956c-3.948-5.017-7.954-10.007-12.041-14.956c129.089,274.349,101.219,598.722-85.45,797.825
		c-178.486,190.375-362.126,289.033-578.526,255.441v183.687c-185.234-45.805-357.235-222.674-432.538-399.4
		c78.521-168.976,240.55-306.175,456.136-422.994v187.628c240.12-59.081,406.603-184.262,468.493-403.331
		c-88.036-211.766-233.454-341.611-417.935-415.689V289.02c-499.674,38.198-763.221,366.784-723.774,815.225
		c6.983,79.381,35.04,156.206,82.769,225.481c102.511,148.789,295.796,262.739,566.119,292.308
		c240.263,12.875,460.253-76.421,615.259-237.709c0.002-0.002,0.005-0.005,0.007-0.007
		c115.352-120.029,194.719-279.923,219.65-467.27C1621.448,808.113,1615.922,705.748,1591.179,609.998z M416.217,1509.413
		c6.222,3.662,12.485,7.235,18.789,10.717C428.702,1516.648,422.439,1513.076,416.217,1509.413z"/>
</g>
</svg>
